<?xml version="1.0" encoding="UTF-8"?>
<svg xmlns="http://www.w3.org/2000/svg" viewBox="0 0 200 48" width="200" height="48">
  <rect id="sig-view-bg" width="200" height="48" fill="#ffffff"/>
  <defs>
    <filter id="ink-soft-0F5E4D44D206" x="-14%" y="-14%" width="128%" height="128%" color-interpolation-filters="sRGB">
      <feGaussianBlur in="SourceGraphic" stdDeviation="0.12" result="b"/>
      <feMerge>
        <feMergeNode in="b"/>
        <feMergeNode in="SourceGraphic"/>
      </feMerge>
    </filter>
  </defs>
  <rect width="200" height="48" fill="none"/>
  <g id="signature-plume">
    <path d="M33.09,12.17L33.44,12.8L29.76,15.39L26.9,18.09L25.45,19.93L24.23,21.81L23.25,23.73L22.55,25.73L22.04,28.16L21.96,30.47L22.31,32.67L23.1,34.74L24.51,33.61L25.33,32.71L25.6,32.16L25.96,31.26L26.35,30L26.86,28.4L29.88,17.93L42.14,9.08L44.92,10.1L47.08,10.64L49.12,10.84L51.58,10.8L52.13,10.8L52.25,11.62L47.39,15.5L45.51,15.27L43.59,14.76L41.59,14.01L39.55,13.03L32.11,39.8L32.97,39.76L36.22,39.33L39.32,38.35L42.53,36.7L46.06,34.31L46.57,34.98L43.67,37.76L41,39.84L38.3,41.44L35.28,42.74L32.15,43.64L29.21,44.03L27.17,43.99L25.25,43.68L23.49,43.13L21.84,42.31L20.39,41.21L19.22,39.92L18.32,38.39L17.69,36.62L17.34,34.7L17.22,32.75L17.41,30.75L17.88,28.71L18.79,26.2L20.04,23.77L21.61,21.42L23.57,19.15L25.41,17.38L27.64,15.66L30.19,13.9L33.09,12.17Z  M38.58,12.92L35.17,15.43L32.11,26.12L31.56,27.81L31.13,28.79L30.5,29.69L29.52,30.71L26.9,32.9L23.49,35.45L24.86,37.21L26.54,38.47L28.58,39.29L31.05,39.72Z  M49.13,40.47L59.59,37.61L59.59,38.16L49.13,44.18Z  M72.78,16.8L68.83,30.28L66.24,31.37L64.48,32.24L62.36,33.61L60.4,32.39L58.72,31.61L57.46,31.3L55.97,31.18L55.9,30.83L56.64,30.28L57.07,29.73L57.5,28.91L57.93,27.65L60.83,17.78L64.2,16.33L67.3,14.45L69.69,15.82L72.78,16.8Z  M61.11,28.87L65.18,30.59L68.51,19.19L66.91,18.4L65.85,17.93L64.4,17.62Z  M69.66,30.67L77.78,31.48L77.78,32.03L69.66,33.94Z  M79.84,7L89.63,14.68L90.54,13.62L91.75,12.88L91.55,13.62L90.89,14.56L90.61,15.19L90.34,16.21L87.09,28.4L84.93,29.34L83.33,30.12L80.5,32L78.86,30.94L77.33,30.24L74.08,29.61L74.2,29.26L74.86,28.67L75.29,28.08L75.68,27.18L76.12,25.69L78.66,16.21L80.94,15.31L82.5,14.41L78.66,11.43Z  M86.46,17.46L83.48,15.15L82.27,15.93L79.29,27.14L83.36,28.94Z  M88.63,27.8L93.18,31.62L93.18,32.11L88.63,31.05Z  M103.35,15.66L106.13,21.62L96.06,26.83L94.85,30L98.33,31.77L101.86,30L102.02,30.55L94.77,34.27L93.47,33.41L92.38,32.82L91.16,32.35L89.48,31.88L89.63,31.41L90.77,30.59L91.24,29.77L91.83,28.36L95.71,18.36L97.43,17.85L98.88,17.38L99.51,17.15L100.49,16.8L101.74,16.29L103.35,15.66Z  M99.86,17.58L99.59,17.7L96.53,25.65L102.45,22.6Z  M161.58,7.39L161.74,8.45L160.05,9.35L158.84,10.25L157.23,12.09L156.64,13.39L156.09,15.11L155.9,15.86L155.62,16.8L151.2,34.31L150.88,35.65L150.69,36.7L150.65,37.53L150.73,38.07L151.04,38.51L151.51,38.66L152.45,38.27L153.94,37.17L154.37,38L149.08,41.99L147.32,43.25L146.02,42.35L145.36,41.09L145.28,39.29L145.75,36.59L134.93,43.99L132.11,41.99L129.72,40.58L127.72,39.76L126.16,39.56L124.94,40.07L124.35,40.94L124.39,42.27L124.63,43.05L124.63,43.52L124.08,44.31L123.22,44.66L122.75,44.58L122.43,44.27L122.24,43.56L122.39,42.62L122.86,41.41L123.73,40.07L124.9,38.58L126.43,36.9L127.06,36.23L131.64,31.45L130.43,30.28L129.49,29.1L128.78,27.96L128.31,26.83L128,24.4L128.39,21.62L129.72,18.36L131.84,15.27L134.66,12.56L138.19,10.41L141.99,8.96L145.63,8.33L148.3,8.41L150.76,9L153.08,10.06L155.19,11.62L158.17,9.27L159.74,8.33L161.58,7.39Z  M148.77,13.5L146.18,12.6L143.4,12.41L140.3,12.92L137.25,14.09L134.46,15.82L132.23,17.89L130.62,20.13L129.68,22.4L129.33,24.71L129.68,26.87L130.7,28.83L132.43,30.63L143.08,19.46L141.63,18.83L140.26,18.68L138.38,19.23L136.62,20.68L136.03,21.11L135.8,20.99L135.8,20.64L136.19,19.74L137.05,18.56L138.3,17.35L139.79,16.37L141.4,15.66L142.97,15.39L144.65,15.46L146.42,15.97Z  M151.08,15.78L150.69,15.19L150.45,14.84L150.18,14.56L149.51,14.05L135.6,28.63L147.98,27.93Z  M132.19,32.2L129.29,35.25L139.56,39.72L146.14,35.29L147.12,31.33Z  M158.61,41.2L168.41,37.88L168.41,38.52L158.61,45Z  M179.21,15.19L180.78,18.4L177.25,20.79L176,17.93L173.69,19.5L170.12,29.85L171.65,31.3L173.96,29.88L174.16,30.43L168.36,34.04L167.42,32.94L166.56,32.16L164.72,31.26L164.87,30.86L165.69,30.32L166.24,29.77L166.71,28.98L167.22,27.65L169.73,20.4L170.04,19.27L170.08,18.6L169.57,18.13L169.03,18.32L168.2,18.83L167.97,18.32L172.79,15.15L173.69,16.25L174.16,17.15L174.2,17.78L174,18.64Z  M174,18.64L173.12,19.38L172.4,20.34L171.87,21.41L171.53,22.57L171.35,23.8L171.28,25.09L171.28,26.42L171.29,27.77L171.25,29.15L171.15,30.53L170.95,31.92L170.67,33.31" fill="#472e24" opacity="0.22" transform="translate(0.25 0.18)"/>
    <path d="M33.09,12.17L33.44,12.8L29.76,15.39L26.9,18.09L25.45,19.93L24.23,21.81L23.25,23.73L22.55,25.73L22.04,28.16L21.96,30.47L22.31,32.67L23.1,34.74L24.51,33.61L25.33,32.71L25.6,32.16L25.96,31.26L26.35,30L26.86,28.4L29.88,17.93L42.14,9.08L44.92,10.1L47.08,10.64L49.12,10.84L51.58,10.8L52.13,10.8L52.25,11.62L47.39,15.5L45.51,15.27L43.59,14.76L41.59,14.01L39.55,13.03L32.11,39.8L32.97,39.76L36.22,39.33L39.32,38.35L42.53,36.7L46.06,34.31L46.57,34.98L43.67,37.76L41,39.84L38.3,41.44L35.28,42.74L32.15,43.64L29.21,44.03L27.17,43.99L25.25,43.68L23.49,43.13L21.84,42.31L20.39,41.21L19.22,39.92L18.32,38.39L17.69,36.62L17.34,34.7L17.22,32.75L17.41,30.75L17.88,28.71L18.79,26.2L20.04,23.77L21.61,21.42L23.57,19.15L25.41,17.38L27.64,15.66L30.19,13.9L33.09,12.17Z  M38.58,12.92L35.17,15.43L32.11,26.12L31.56,27.81L31.13,28.79L30.5,29.69L29.52,30.71L26.9,32.9L23.49,35.45L24.86,37.21L26.54,38.47L28.58,39.29L31.05,39.72Z  M49.13,40.47L59.59,37.61L59.59,38.16L49.13,44.18Z  M72.78,16.8L68.83,30.28L66.24,31.37L64.48,32.24L62.36,33.61L60.4,32.39L58.72,31.61L57.46,31.3L55.97,31.18L55.9,30.83L56.64,30.28L57.07,29.73L57.5,28.91L57.93,27.65L60.83,17.78L64.2,16.33L67.3,14.45L69.69,15.82L72.78,16.8Z  M61.11,28.87L65.18,30.59L68.51,19.19L66.91,18.4L65.85,17.93L64.4,17.62Z  M69.66,30.67L77.78,31.48L77.78,32.03L69.66,33.94Z  M79.84,7L89.63,14.68L90.54,13.62L91.75,12.88L91.55,13.62L90.89,14.56L90.61,15.19L90.34,16.21L87.09,28.4L84.93,29.34L83.33,30.12L80.5,32L78.86,30.94L77.33,30.24L74.08,29.61L74.2,29.26L74.86,28.67L75.29,28.08L75.68,27.18L76.12,25.69L78.66,16.21L80.94,15.31L82.5,14.41L78.66,11.43Z  M86.46,17.46L83.48,15.15L82.27,15.93L79.29,27.14L83.36,28.94Z  M88.63,27.8L93.18,31.62L93.18,32.11L88.63,31.05Z  M103.35,15.66L106.13,21.62L96.06,26.83L94.85,30L98.33,31.77L101.86,30L102.02,30.55L94.77,34.27L93.47,33.41L92.38,32.82L91.16,32.35L89.48,31.88L89.63,31.41L90.77,30.59L91.24,29.77L91.83,28.36L95.71,18.36L97.43,17.85L98.88,17.38L99.51,17.15L100.49,16.8L101.74,16.29L103.35,15.66Z  M99.86,17.58L99.59,17.7L96.53,25.65L102.45,22.6Z  M161.58,7.39L161.74,8.45L160.05,9.35L158.84,10.25L157.23,12.09L156.64,13.39L156.09,15.11L155.9,15.86L155.62,16.8L151.2,34.31L150.88,35.65L150.69,36.7L150.65,37.53L150.73,38.07L151.04,38.51L151.51,38.66L152.45,38.27L153.94,37.17L154.37,38L149.08,41.99L147.32,43.25L146.02,42.35L145.36,41.09L145.28,39.29L145.75,36.59L134.93,43.99L132.11,41.99L129.72,40.58L127.72,39.76L126.16,39.56L124.94,40.07L124.35,40.94L124.39,42.27L124.63,43.05L124.63,43.52L124.08,44.31L123.22,44.66L122.75,44.58L122.43,44.27L122.24,43.56L122.39,42.62L122.86,41.41L123.73,40.07L124.9,38.58L126.43,36.9L127.06,36.23L131.64,31.45L130.43,30.28L129.49,29.1L128.78,27.96L128.31,26.83L128,24.4L128.39,21.62L129.72,18.36L131.84,15.27L134.66,12.56L138.19,10.41L141.99,8.96L145.63,8.33L148.3,8.41L150.76,9L153.08,10.06L155.19,11.62L158.17,9.27L159.74,8.33L161.58,7.39Z  M148.77,13.5L146.18,12.6L143.4,12.41L140.3,12.92L137.25,14.09L134.46,15.82L132.23,17.89L130.62,20.13L129.68,22.4L129.33,24.71L129.68,26.87L130.7,28.83L132.43,30.63L143.08,19.46L141.63,18.83L140.26,18.68L138.38,19.23L136.62,20.68L136.03,21.11L135.8,20.99L135.8,20.64L136.19,19.74L137.05,18.56L138.3,17.35L139.79,16.37L141.4,15.66L142.97,15.39L144.65,15.46L146.42,15.97Z  M151.08,15.78L150.69,15.19L150.45,14.84L150.18,14.56L149.51,14.05L135.6,28.63L147.98,27.93Z  M132.19,32.2L129.29,35.25L139.56,39.72L146.14,35.29L147.12,31.33Z  M158.61,41.2L168.41,37.88L168.41,38.52L158.61,45Z  M179.21,15.19L180.78,18.4L177.25,20.79L176,17.93L173.69,19.5L170.12,29.85L171.65,31.3L173.96,29.88L174.16,30.43L168.36,34.04L167.42,32.94L166.56,32.16L164.72,31.26L164.87,30.86L165.69,30.32L166.24,29.77L166.71,28.98L167.22,27.65L169.73,20.4L170.04,19.27L170.08,18.6L169.57,18.13L169.03,18.32L168.2,18.83L167.97,18.32L172.79,15.15L173.69,16.25L174.16,17.15L174.2,17.78L174,18.64Z  M174,18.64L173.12,19.38L172.4,20.34L171.87,21.41L171.53,22.57L171.35,23.8L171.28,25.09L171.28,26.42L171.29,27.77L171.25,29.15L171.15,30.53L170.95,31.92L170.67,33.31" fill="#1f1210" fill-rule="evenodd" filter="url(#ink-soft-0F5E4D44D206)"/>
  </g>
</svg>