<?xml version="1.0" encoding="UTF-8"?>
<svg xmlns="http://www.w3.org/2000/svg" viewBox="0 0 200 48" width="200" height="48">
  <rect id="sig-view-bg" width="200" height="48" fill="#ffffff"/>
  <defs>
    <filter id="ink-soft-558AB52FB394" x="-14%" y="-14%" width="128%" height="128%" color-interpolation-filters="sRGB">
      <feGaussianBlur in="SourceGraphic" stdDeviation="0.12" result="b"/>
      <feMerge>
        <feMergeNode in="b"/>
        <feMergeNode in="SourceGraphic"/>
      </feMerge>
    </filter>
  </defs>
  <rect width="200" height="48" fill="none"/>
  <g id="signature-plume">
    <path d="M36.6,11.39L36.69,12.12L34.44,12.91L32.78,13.7L31.58,14.52L30.76,15.39L30.12,16.56L29.45,18.28L28.23,21.84L36.78,16.5L38.18,17.81L39.11,19.04L39.61,20.24L39.72,21.4L39.64,22.1L39.43,22.98L39.14,24.03L38.73,25.28L37.86,27.85L37.19,29.6L36.57,30.83L35.84,31.79L34.88,32.76L33.97,33.52L32.84,34.33L31.49,35.27L29.89,36.26L28.78,36.96L27.9,37.54L27.23,38.01L26.8,38.36L26.27,38.89L26.01,39.35L26.04,39.73L26.47,39.91L27,39.85L27.55,39.76L27.93,39.82L28.17,39.99L28.17,40.61L27.53,41.4L26.85,41.72L26.12,41.83L25.45,41.66L24.99,41.19L24.78,40.49L24.93,39.67L25.28,39L25.86,38.21L26.33,37.72L26.97,37.08L27.85,36.29L28.93,35.35L30.03,34.39L30.94,33.54L31.64,32.84L32.17,32.26L32.98,31.09L33.74,29.69L31.96,28.93L30.21,28.67L27.9,28.9L25.48,29.66L24.14,30.28L22.65,31.06L21.02,32.06L19.24,33.22L20.29,33.19L21.02,33.19L22.59,33.25L24.61,33.43L25.69,33.49L26.53,33.4L27.35,33.11L28.2,32.55L29.16,31.71L29.77,32.11L24.08,37.48L22.15,36.64L20.46,36.05L18.8,35.73L17.08,35.62L15.12,35.73L13.31,36.08L11.79,36.64L10.69,37.34L10.13,37.89L9.84,38.36L9.93,39.32L9.96,40.11L9.46,40.81L8.76,41.07L8.41,40.96L8.12,40.61L8,40.11L8.12,39.47L8.5,38.68L9.11,37.89L10.13,36.93L11.85,35.62L13.55,34.27L14.63,33.28L15.24,32.46L15.62,31.65L15.73,31.12L15.62,30.71L15.33,30.45L14.86,30.36L14.33,30.45L13.78,30.74L13.22,31.18L12.67,31.82L11.91,31.82L12.55,30.63L13.19,29.78L14.86,28.58L16.78,28.12L17.14,26.36L16.93,25.26L16.23,24.64L15.09,24.44L14.27,24.53L13.63,24.76L12.96,25.23L12.2,25.96L11.62,25.75L12.2,24.79L12.76,24.09L14.74,22.78L15.82,22.42L16.9,22.31L18.39,22.4L18.8,21.05L19.79,19.04L21.31,17.14L22.88,15.77L25.02,14.34L23.26,14.81L22.21,14.95L21.8,14.92L21.19,14.84L20.35,14.69L19.29,14.49L18.51,14.34L18.04,14.28L17.43,14.43L16.78,14.81L16.11,15.51L15.41,16.65L14.54,16.62L15.33,15.25L16.11,14.22L17.37,13.11L18.68,12.3L20,11.8L21.19,11.63L22.1,11.74L23.44,12.12L24.87,12.53L26.01,12.65L28.31,12.33L31.06,11.36L31.17,12.09L29.31,12.82L27.7,13.61L26.33,14.49L25.22,15.45L24.58,16.21L23.96,17.17L23.38,18.37L22.86,19.74L20.08,27.77L19.32,29.66L18.51,31.06L17.34,32.41L15.53,34.1L17.78,32.93L19.56,31.73L20.87,30.57L21.75,29.46L22.1,28.85L22.48,28.03L22.86,27.01L23.29,25.81L25.31,19.97L26.3,17.61L27.35,15.95L28.63,14.69L30.33,13.61L31.44,13.09L32.87,12.56L34.56,11.98L36.6,11.39Z  M27.88,22.83L27.61,23.59L29.54,24.29L31.47,24.53L33.57,24.29L34.62,24L35.87,23.5L35.84,22.31L35.52,21.29L34.79,20.32L33.6,19.33Z  M25.8,28.76L28.11,28.12L30.15,27.91L32.05,28.09L34.03,28.82L35.55,24.41L34.21,24.88L33.13,25.14L31.11,25.31L29.16,25.11L27.29,24.47Z  M37.4,38.34L45.87,35.83L45.87,36.27L37.4,41.31Z  M55.54,15.6L55.95,15.74L55.11,16.79L54.58,17.55L54.26,18.25L53.97,19.19L52.42,24.93L52.16,26.07L52.13,26.69L52.51,27.04L52.83,26.92L53.03,26.77L53.5,26.42L53.73,26.83L50.26,29.49L49.59,28.76L49.27,28.12L49.21,27.39L49.38,26.36L44.48,29.87L43.75,28.99L43.29,28.09L43.11,27.18L43.23,26.28L43.69,25.08L44.34,23.94L45.65,22.34L47.49,20.47L46.82,17.11L47.11,16.76L47.87,16.73L49.41,16.33L50.93,15.3L52.8,16.09L53.7,16.3L54.43,16.33L54.9,16.21L55.13,16L55.54,15.6Z  M51.52,18.37L47.4,17.23L48.07,20.62L50.61,21.81Z  M50.44,22.4L47.66,21.05L46.7,22.63L46.15,24L46,25.05L46.12,25.96L46.47,26.77L47.11,27.47L49.56,25.69Z  M53.63,27.86L58.91,28.49L58.91,28.99L53.63,30.33Z  M67.04,10.17L66.93,10.52L65.85,11.16L65.03,11.89L64.42,12.88L63.86,14.31L60.1,26.13L61.26,27.24L61.99,26.74L62.17,27.21L58.87,29.31L58.11,28.47L57.53,27.94L56.94,27.62L56.16,27.36L56.24,27.07L57,26.48L57.53,25.66L57.7,25.17L58.08,24.06L61.09,14.54L61.41,13.52L61.53,12.85L61.44,11.98L60.83,11.01L61.12,10.75L62.11,11.25L62.84,12.12L64.07,11.22L65.09,10.63L67.04,10.17Z  M64.72,27.35L67.64,28.97L67.64,29.57L64.72,29.97Z  M78.48,20.41L83.74,17.67L84.41,18.57L84.67,19.33L84.64,20.35L84.29,21.46L80.88,29.22L79.39,29.55L78.13,29.95L75.59,31.12L74.81,30.42L74.02,29.93L73.26,29.58L72.5,29.43L70.95,29.66L69.08,30.57L68.21,29.55L67.28,28.82L66.17,28.35L64.88,28.06L65.03,27.74L66.17,27.15L66.63,26.54L67.13,25.52L69.26,20.67L69.67,19.77L69.81,19.27L69.67,18.6L69.38,17.43L69.64,16.38L70.25,15.39L71.16,14.54L72.47,13.82L74.28,13.11L74.37,13.46L73.55,13.9L72.88,14.34L72.41,14.78L72.12,15.22L72.03,15.83L72.15,16.21L72.5,17L72.73,17.73L72.79,18.48L72.7,19.07L72.47,19.83L77.64,17.14L78.25,17.93L78.57,18.69L78.63,19.51L78.48,20.41Z  M72.21,20.44L69.32,27.01L72.03,28.64L75.1,21.67L75.45,20.73L75.56,20.09L75.36,19.59L74.89,19.04Z  M78.19,21.08L75.36,27.47L78.1,29.14L81.26,22.02L81.55,21.2L81.63,20.7L81.43,20.24L80.96,19.56Z  M82.34,29.12L85.85,29.55L85.85,30.01L82.34,31.52Z  M92.96,16.03L95.21,20.38L87.85,24.53L87.03,26.95L89.69,28.17L92.26,26.74L92.4,27.15L87.12,30.13L86.13,29.55L85.31,29.14L84.38,28.82L83.09,28.5L83.21,28.17L84.03,27.5L84.35,26.89L84.76,25.81L87.33,18.25L88.61,17.84L89.69,17.43L90.16,17.26L90.86,16.97L91.79,16.56L92.96,16.03Z  M90.42,17.55L90.22,17.64L88.17,23.65L92.46,21.2Z  M92.88,27.15L98.17,29.29L98.17,29.63L92.88,29.39Z  M107.14,15.83L108.31,17.81L110,16.53L110.27,16.91L109.27,17.64L108.69,18.19L108.28,18.89L107.9,19.83L105.83,26.16L105.65,26.92L105.68,27.44L105.98,27.74L106.35,27.62L107.03,27.21L107.23,27.62L103.61,29.98L102.97,29.22L102.68,28.52L102.74,27.68L103.06,26.45L105.42,19.19L104.66,17.96L101.8,19.83L99.41,27.18L100.08,28.12L97.13,30.07L95.41,28.17L96.69,27.21L98.91,20.44L99.23,19.24L99.26,18.48L98.91,18.16L98.53,18.31L97.95,18.69L97.77,18.28L101.33,15.92L102.04,16.68L102.36,17.26L102.39,17.87L102.18,18.66L102.04,19.16Z  M144.68,14.25L147.62,21.96L140.62,25.28L142.14,26.92L143.07,28.79L143.45,31.03L143.3,33.81L143.16,35.09L143.19,35.97L143.36,36.49L143.74,37.08L146.02,35.73L146.37,36.38L140.82,39.61L140.06,38.77L139.68,37.86L139.63,37.37L139.63,36.52L139.71,35.32L139.83,33.78L139.89,32.09L139.66,30.63L139.19,29.46L138.58,28.58L137.67,27.91L136.39,27.27L134.96,27.94L132.13,34.95L133.5,35.65L134.84,36.58L137.23,35.12L137.55,35.76L131.63,39.09L129.79,37.92L128.1,37.16L126.43,36.7L124.68,36.46L122.38,36.52L119.98,36.96L118.58,37.46L116.92,38.27L116.6,37.83L119.08,36.08L121.3,34.89L123.57,34.16L126.11,33.75L126.41,32.99L126.9,31.5L127.05,30.3L126.87,29.22L126.38,28.06L125.62,26.95L124.74,26.04L123.95,25.55L122.82,25.02L123.11,24.32L124.95,23.68L127.28,22.66L131.37,20.73L132.04,18.86L132.3,17.61L132.21,16.7L131.75,15.97L130.99,15.45L129.99,15.25L128.68,15.36L127.95,15.62L127.02,16.06L126.61,15.62L128.33,14.57L129.76,13.93L131.1,13.64L132.62,13.61L134.17,13.87L135.28,14.46L135.98,15.33L136.27,16.44L136.18,17.35L135.83,18.54Z  M141.38,16.62L139.07,17.73L135.31,27.04L143.83,23.01Z  M138.08,18.22L135.45,19.48L129.56,34.07L131.42,34.65Z  M130.99,21.67L126.14,23.97L127.54,25.08L128.13,25.81L128.89,26.89Z  M145.3,37.3L150.79,33.83L150.79,34.37L145.3,40.05Z  M161.75,17.43L162.16,17.64L161.19,18.57L160.58,19.24L160.17,19.91L159.76,20.79L157.52,26.31L157.11,27.42L157.02,28.03L157.14,28.32L157.34,28.41L157.69,28.35L157.93,28.23L158.42,27.94L158.6,28.35L154.8,30.57L154.25,29.78L154.01,29.11L154.04,28.35L154.34,27.36L149.05,30.25L148.44,29.28L148.09,28.35L148.03,27.42L148.24,26.54L148.82,25.4L149.64,24.35L151.13,22.92L153.17,21.29L152.93,17.87L153.26,17.55L154.01,17.64L155.59,17.43L157.22,16.59L158.98,17.61L159.88,17.93L160.58,18.05L161.05,17.96L161.75,17.43Z  M157.46,19.71L153.49,18.08L153.72,21.49L156.09,23.01Z  M155.88,23.56L153.28,21.9L152.12,23.36L151.42,24.61L151.13,25.64L151.13,26.57L151.39,27.42L151.94,28.2L154.57,26.74Z  M159.83,28.84L163.1,29.22L163.1,29.72L159.83,31.16Z  M170.77,20.99L173.28,22.63L171.35,28.17L169.13,28.7L167.97,29.28L166.59,30.16L165.83,29.66L165.16,29.34L163.7,29.11L162.48,29.28L161.25,29.84L160.64,30.1L160.38,29.95L160.35,29.66L160.76,29.25L161.52,28.64L163.24,27.18L165.75,24.93L163.38,23.36L165.1,18.43L166.48,17.99L167.56,17.49L168.55,16.91L169.57,16.09L170.88,16.7L171.93,17.11L173.28,17.32L173.98,17.26L174.56,17L174.97,16.68L175.2,16.33L175.09,15.86L174.85,15.39L174.88,14.95L175.35,14.31L175.93,14.05L176.25,14.14L176.49,14.4L176.57,14.81L176.46,15.3L175.85,16.41L175.29,17.03L174.44,17.78Z  M166.56,21.87L168.05,22.83L172.28,19.04L171.38,19.21L170.65,19.27L169.13,18.98L167.88,18.16Z  M168.43,23.1L163.76,27.33L164.93,27.07L165.89,26.98L167.35,27.24L168.69,28L170.04,24.18Z  M174.25,27.94L179.74,28.9L179.74,29.35L174.25,30.48Z  M187.46,10.52L187.34,10.87L186.32,11.6L185.59,12.33L185.04,13.32L184.51,14.75L183.11,19.36L188.22,15.36L190,18.25L186.12,21.08L186.79,21.84L187.17,22.66L187.31,23.71L187.23,25.2L187.08,26.51L187.08,27.12L187.34,27.36L187.67,27.21L188.37,26.8L188.51,27.21L184.72,29.58L184.28,28.41L184.28,27.65L184.43,26.6L179.76,29.75L179.17,29.08L178.59,28.55L177.89,28.17L176.98,27.82L177.07,27.56L177.68,27.12L178.09,26.66L178.47,25.87L178.97,24.41L181.89,14.72L182.18,13.73L182.3,13.11L182.18,12.09L181.92,11.74L181.45,11.45L181.74,11.04L182.38,11.31L182.79,11.57L183.55,12.33L184.6,11.6L185.56,11.07L187.46,10.52Z  M186.03,17.61L182.91,20.06L181.83,23.59L187.31,19.68Z  M181.62,24.29L180.89,26.6L182.12,27.65L184.54,25.99L184.6,24.96L184.48,24.09L184.13,23.39L183.58,22.86Z  M183.58,22.86L183.46,22.12L183.14,21.37L182.66,20.67L182.05,20.02L181.33,19.42L180.52,18.86L179.66,18.31L178.78,17.75L177.9,17.16L177.05,16.54L176.23,15.87L175.44,15.15" fill="#472e24" opacity="0.22" transform="translate(0.25 0.18)"/>
    <path d="M36.6,11.39L36.69,12.12L34.44,12.91L32.78,13.7L31.58,14.52L30.76,15.39L30.12,16.56L29.45,18.28L28.23,21.84L36.78,16.5L38.18,17.81L39.11,19.04L39.61,20.24L39.72,21.4L39.64,22.1L39.43,22.98L39.14,24.03L38.73,25.28L37.86,27.85L37.19,29.6L36.57,30.83L35.84,31.79L34.88,32.76L33.97,33.52L32.84,34.33L31.49,35.27L29.89,36.26L28.78,36.96L27.9,37.54L27.23,38.01L26.8,38.36L26.27,38.89L26.01,39.35L26.04,39.73L26.47,39.91L27,39.85L27.55,39.76L27.93,39.82L28.17,39.99L28.17,40.61L27.53,41.4L26.85,41.72L26.12,41.83L25.45,41.66L24.99,41.19L24.78,40.49L24.93,39.67L25.28,39L25.86,38.21L26.33,37.72L26.97,37.08L27.85,36.29L28.93,35.35L30.03,34.39L30.94,33.54L31.64,32.84L32.17,32.26L32.98,31.09L33.74,29.69L31.96,28.93L30.21,28.67L27.9,28.9L25.48,29.66L24.14,30.28L22.65,31.06L21.02,32.06L19.24,33.22L20.29,33.19L21.02,33.19L22.59,33.25L24.61,33.43L25.69,33.49L26.53,33.4L27.35,33.11L28.2,32.55L29.16,31.71L29.77,32.11L24.08,37.48L22.15,36.64L20.46,36.05L18.8,35.73L17.08,35.62L15.12,35.73L13.31,36.08L11.79,36.64L10.69,37.34L10.13,37.89L9.84,38.36L9.93,39.32L9.96,40.11L9.46,40.81L8.76,41.07L8.41,40.96L8.12,40.61L8,40.11L8.12,39.47L8.5,38.68L9.11,37.89L10.13,36.93L11.85,35.62L13.55,34.27L14.63,33.28L15.24,32.46L15.62,31.65L15.73,31.12L15.62,30.71L15.33,30.45L14.86,30.36L14.33,30.45L13.78,30.74L13.22,31.18L12.67,31.82L11.91,31.82L12.55,30.63L13.19,29.78L14.86,28.58L16.78,28.12L17.14,26.36L16.93,25.26L16.23,24.64L15.09,24.44L14.27,24.53L13.63,24.76L12.96,25.23L12.2,25.96L11.62,25.75L12.2,24.79L12.76,24.09L14.74,22.78L15.82,22.42L16.9,22.31L18.39,22.4L18.8,21.05L19.79,19.04L21.31,17.14L22.88,15.77L25.02,14.34L23.26,14.81L22.21,14.95L21.8,14.92L21.19,14.84L20.35,14.69L19.29,14.49L18.51,14.34L18.04,14.28L17.43,14.43L16.78,14.81L16.11,15.51L15.41,16.65L14.54,16.62L15.33,15.25L16.11,14.22L17.37,13.11L18.68,12.3L20,11.8L21.19,11.63L22.1,11.74L23.44,12.12L24.87,12.53L26.01,12.65L28.31,12.33L31.06,11.36L31.17,12.09L29.31,12.82L27.7,13.61L26.33,14.49L25.22,15.45L24.58,16.21L23.96,17.17L23.38,18.37L22.86,19.74L20.08,27.77L19.32,29.66L18.51,31.06L17.34,32.41L15.53,34.1L17.78,32.93L19.56,31.73L20.87,30.57L21.75,29.46L22.1,28.85L22.48,28.03L22.86,27.01L23.29,25.81L25.31,19.97L26.3,17.61L27.35,15.95L28.63,14.69L30.33,13.61L31.44,13.09L32.87,12.56L34.56,11.98L36.6,11.39Z  M27.88,22.83L27.61,23.59L29.54,24.29L31.47,24.53L33.57,24.29L34.62,24L35.87,23.5L35.84,22.31L35.52,21.29L34.79,20.32L33.6,19.33Z  M25.8,28.76L28.11,28.12L30.15,27.91L32.05,28.09L34.03,28.82L35.55,24.41L34.21,24.88L33.13,25.14L31.11,25.31L29.16,25.11L27.29,24.47Z  M37.4,38.34L45.87,35.83L45.87,36.27L37.4,41.31Z  M55.54,15.6L55.95,15.74L55.11,16.79L54.58,17.55L54.26,18.25L53.97,19.19L52.42,24.93L52.16,26.07L52.13,26.69L52.51,27.04L52.83,26.92L53.03,26.77L53.5,26.42L53.73,26.83L50.26,29.49L49.59,28.76L49.27,28.12L49.21,27.39L49.38,26.36L44.48,29.87L43.75,28.99L43.29,28.09L43.11,27.18L43.23,26.28L43.69,25.08L44.34,23.94L45.65,22.34L47.49,20.47L46.82,17.11L47.11,16.76L47.87,16.73L49.41,16.33L50.93,15.3L52.8,16.09L53.7,16.3L54.43,16.33L54.9,16.21L55.13,16L55.54,15.6Z  M51.52,18.37L47.4,17.23L48.07,20.62L50.61,21.81Z  M50.44,22.4L47.66,21.05L46.7,22.63L46.15,24L46,25.05L46.12,25.96L46.47,26.77L47.11,27.47L49.56,25.69Z  M53.63,27.86L58.91,28.49L58.91,28.99L53.63,30.33Z  M67.04,10.17L66.93,10.52L65.85,11.16L65.03,11.89L64.42,12.88L63.86,14.31L60.1,26.13L61.26,27.24L61.99,26.74L62.17,27.21L58.87,29.31L58.11,28.47L57.53,27.94L56.94,27.62L56.16,27.36L56.24,27.07L57,26.48L57.53,25.66L57.7,25.17L58.08,24.06L61.09,14.54L61.41,13.52L61.53,12.85L61.44,11.98L60.83,11.01L61.12,10.75L62.11,11.25L62.84,12.12L64.07,11.22L65.09,10.63L67.04,10.17Z  M64.72,27.35L67.64,28.97L67.64,29.57L64.72,29.97Z  M78.48,20.41L83.74,17.67L84.41,18.57L84.67,19.33L84.64,20.35L84.29,21.46L80.88,29.22L79.39,29.55L78.13,29.95L75.59,31.12L74.81,30.42L74.02,29.93L73.26,29.58L72.5,29.43L70.95,29.66L69.08,30.57L68.21,29.55L67.28,28.82L66.17,28.35L64.88,28.06L65.03,27.74L66.17,27.15L66.63,26.54L67.13,25.52L69.26,20.67L69.67,19.77L69.81,19.27L69.67,18.6L69.38,17.43L69.64,16.38L70.25,15.39L71.16,14.54L72.47,13.82L74.28,13.11L74.37,13.46L73.55,13.9L72.88,14.34L72.41,14.78L72.12,15.22L72.03,15.83L72.15,16.21L72.5,17L72.73,17.73L72.79,18.48L72.7,19.07L72.47,19.83L77.64,17.14L78.25,17.93L78.57,18.69L78.63,19.51L78.48,20.41Z  M72.21,20.44L69.32,27.01L72.03,28.64L75.1,21.67L75.45,20.73L75.56,20.09L75.36,19.59L74.89,19.04Z  M78.19,21.08L75.36,27.47L78.1,29.14L81.26,22.02L81.55,21.2L81.63,20.7L81.43,20.24L80.96,19.56Z  M82.34,29.12L85.85,29.55L85.85,30.01L82.34,31.52Z  M92.96,16.03L95.21,20.38L87.85,24.53L87.03,26.95L89.69,28.17L92.26,26.74L92.4,27.15L87.12,30.13L86.13,29.55L85.31,29.14L84.38,28.82L83.09,28.5L83.21,28.17L84.03,27.5L84.35,26.89L84.76,25.81L87.33,18.25L88.61,17.84L89.69,17.43L90.16,17.26L90.86,16.97L91.79,16.56L92.96,16.03Z  M90.42,17.55L90.22,17.64L88.17,23.65L92.46,21.2Z  M92.88,27.15L98.17,29.29L98.17,29.63L92.88,29.39Z  M107.14,15.83L108.31,17.81L110,16.53L110.27,16.91L109.27,17.64L108.69,18.19L108.28,18.89L107.9,19.83L105.83,26.16L105.65,26.92L105.68,27.44L105.98,27.74L106.35,27.62L107.03,27.21L107.23,27.62L103.61,29.98L102.97,29.22L102.68,28.52L102.74,27.68L103.06,26.45L105.42,19.19L104.66,17.96L101.8,19.83L99.41,27.18L100.08,28.12L97.13,30.07L95.41,28.17L96.69,27.21L98.91,20.44L99.23,19.24L99.26,18.48L98.91,18.16L98.53,18.31L97.95,18.69L97.77,18.28L101.33,15.92L102.04,16.68L102.36,17.26L102.39,17.87L102.18,18.66L102.04,19.16Z  M144.68,14.25L147.62,21.96L140.62,25.28L142.14,26.92L143.07,28.79L143.45,31.03L143.3,33.81L143.16,35.09L143.19,35.97L143.36,36.49L143.74,37.08L146.02,35.73L146.37,36.38L140.82,39.61L140.06,38.77L139.68,37.86L139.63,37.37L139.63,36.52L139.71,35.32L139.83,33.78L139.89,32.09L139.66,30.63L139.19,29.46L138.58,28.58L137.67,27.91L136.39,27.27L134.96,27.94L132.13,34.95L133.5,35.65L134.84,36.58L137.23,35.12L137.55,35.76L131.63,39.09L129.79,37.92L128.1,37.16L126.43,36.7L124.68,36.46L122.38,36.52L119.98,36.96L118.58,37.46L116.92,38.27L116.6,37.83L119.08,36.08L121.3,34.89L123.57,34.16L126.11,33.75L126.41,32.99L126.9,31.5L127.05,30.3L126.87,29.22L126.38,28.06L125.62,26.95L124.74,26.04L123.95,25.55L122.82,25.02L123.11,24.32L124.95,23.68L127.28,22.66L131.37,20.73L132.04,18.86L132.3,17.61L132.21,16.7L131.75,15.97L130.99,15.45L129.99,15.25L128.68,15.36L127.95,15.62L127.02,16.06L126.61,15.62L128.33,14.57L129.76,13.93L131.1,13.64L132.62,13.61L134.17,13.87L135.28,14.46L135.98,15.33L136.27,16.44L136.18,17.35L135.83,18.54Z  M141.38,16.62L139.07,17.73L135.31,27.04L143.83,23.01Z  M138.08,18.22L135.45,19.48L129.56,34.07L131.42,34.65Z  M130.99,21.67L126.14,23.97L127.54,25.08L128.13,25.81L128.89,26.89Z  M145.3,37.3L150.79,33.83L150.79,34.37L145.3,40.05Z  M161.75,17.43L162.16,17.64L161.19,18.57L160.58,19.24L160.17,19.91L159.76,20.79L157.52,26.31L157.11,27.42L157.02,28.03L157.14,28.32L157.34,28.41L157.69,28.35L157.93,28.23L158.42,27.94L158.6,28.35L154.8,30.57L154.25,29.78L154.01,29.11L154.04,28.35L154.34,27.36L149.05,30.25L148.44,29.28L148.09,28.35L148.03,27.42L148.24,26.54L148.82,25.4L149.64,24.35L151.13,22.92L153.17,21.29L152.93,17.87L153.26,17.55L154.01,17.64L155.59,17.43L157.22,16.59L158.98,17.61L159.88,17.93L160.58,18.05L161.05,17.96L161.75,17.43Z  M157.46,19.71L153.49,18.08L153.72,21.49L156.09,23.01Z  M155.88,23.56L153.28,21.9L152.12,23.36L151.42,24.61L151.13,25.64L151.13,26.57L151.39,27.42L151.94,28.2L154.57,26.74Z  M159.83,28.84L163.1,29.22L163.1,29.72L159.83,31.16Z  M170.77,20.99L173.28,22.63L171.35,28.17L169.13,28.7L167.97,29.28L166.59,30.16L165.83,29.66L165.16,29.34L163.7,29.11L162.48,29.28L161.25,29.84L160.64,30.1L160.38,29.95L160.35,29.66L160.76,29.25L161.52,28.64L163.24,27.18L165.75,24.93L163.38,23.36L165.1,18.43L166.48,17.99L167.56,17.49L168.55,16.91L169.57,16.09L170.88,16.7L171.93,17.11L173.28,17.32L173.98,17.26L174.56,17L174.97,16.68L175.2,16.33L175.09,15.86L174.85,15.39L174.88,14.95L175.35,14.31L175.93,14.05L176.25,14.14L176.49,14.4L176.57,14.81L176.46,15.3L175.85,16.41L175.29,17.03L174.44,17.78Z  M166.56,21.87L168.05,22.83L172.28,19.04L171.38,19.21L170.65,19.27L169.13,18.98L167.88,18.16Z  M168.43,23.1L163.76,27.33L164.93,27.07L165.89,26.98L167.35,27.24L168.69,28L170.04,24.18Z  M174.25,27.94L179.74,28.9L179.74,29.35L174.25,30.48Z  M187.46,10.52L187.34,10.87L186.32,11.6L185.59,12.33L185.04,13.32L184.51,14.75L183.11,19.36L188.22,15.36L190,18.25L186.12,21.08L186.79,21.84L187.17,22.66L187.31,23.71L187.23,25.2L187.08,26.51L187.08,27.12L187.34,27.36L187.67,27.21L188.37,26.8L188.51,27.21L184.72,29.58L184.28,28.41L184.28,27.65L184.43,26.6L179.76,29.75L179.17,29.08L178.59,28.55L177.89,28.17L176.98,27.82L177.07,27.56L177.68,27.12L178.09,26.66L178.47,25.87L178.97,24.41L181.89,14.72L182.18,13.73L182.3,13.11L182.18,12.09L181.92,11.74L181.45,11.45L181.74,11.04L182.38,11.31L182.79,11.57L183.55,12.33L184.6,11.6L185.56,11.07L187.46,10.52Z  M186.03,17.61L182.91,20.06L181.83,23.59L187.31,19.68Z  M181.62,24.29L180.89,26.6L182.12,27.65L184.54,25.99L184.6,24.96L184.48,24.09L184.13,23.39L183.58,22.86Z  M183.58,22.86L183.46,22.12L183.14,21.37L182.66,20.67L182.05,20.02L181.33,19.42L180.52,18.86L179.66,18.31L178.78,17.75L177.9,17.16L177.05,16.54L176.23,15.87L175.44,15.15" fill="#1f1210" fill-rule="evenodd" filter="url(#ink-soft-558AB52FB394)"/>
  </g>
</svg>