<?xml version="1.0" encoding="UTF-8"?>
<svg xmlns="http://www.w3.org/2000/svg" viewBox="0 0 200 48" width="200" height="48">
  <rect id="sig-view-bg" width="200" height="48" fill="#ffffff"/>
  <defs>
    <filter id="ink-soft-9B7373C34DBE" x="-14%" y="-14%" width="128%" height="128%" color-interpolation-filters="sRGB">
      <feGaussianBlur in="SourceGraphic" stdDeviation="0.12" result="b"/>
      <feMerge>
        <feMergeNode in="b"/>
        <feMergeNode in="SourceGraphic"/>
      </feMerge>
    </filter>
  </defs>
  <rect width="200" height="48" fill="none"/>
  <g id="signature-plume">
    <path d="M40.12,17.32L40.37,17.74L39.35,18.58L38.71,19.26L38.27,20.01L37.81,21.07L34.18,31L33.94,31.7L33.78,32.25L33.72,32.67L33.72,32.94L33.92,33.24L34.27,33.33L34.75,33.2L35.5,32.78L35.7,33.29L31.67,35.64L30.94,35.01L30.61,34.3L30.59,33.86L30.7,33.29L30.88,32.56L31.16,31.7L35.68,19.42L34.11,17.7L33.06,18.23L30.7,24.61L32.29,24.66L30,26.55L28.01,31.97L29.34,31.17L29.56,31.59L23.3,35.45L22.75,34.32L22.25,33.53L21.36,32.74L21.52,32.28L22.14,32.01L22.58,31.64L22.88,31.09L23.28,30.07L24.62,26.42L20.68,26.33L18.66,31.86L18.19,32.94L17.62,33.88L16.96,34.7L16.19,35.36L15.35,35.89L14.5,36.26L13.61,36.46L12.67,36.52L12.12,36.48L11.26,36.33L10.66,36.24L10.25,36.19L9.65,36.26L9.17,36.48L8.81,36.88L8.51,37.47L8,37.45L8.18,36.52L8.53,35.86L9.01,35.23L9.65,34.72L10.33,34.34L11.06,34.17L12.16,34.04L13.33,33.82L14.3,33.31L15.02,32.54L15.55,31.48L15.84,30.6L15.97,29.81L15.95,29.08L15.79,28.44L15.53,27.92L15.18,27.52L14.72,27.3L14.14,27.21L13.2,27.41L12.23,28.07L11.83,27.85L12.51,27.03L13.17,26.42L13.88,25.96L14.72,25.63L15.49,25.47L16.48,25.45L16.68,24.86L17.62,22.87L18.88,21.24L20.51,19.86L22.6,18.58L23.87,17.96L25.35,17.32L27.07,16.64L28.98,15.94L29.78,16.62L30.15,17.28L30.19,18.1L29.95,19.2L36.2,16.11L38.47,18.49Z  M25.33,24.48L26.74,20.65L27.11,19.44L27.13,18.62L26.83,18.03L26.19,17.57L25.26,17.99L24.62,18.36L23.41,19.59L22.91,20.5L22.38,21.71L20.88,25.78L22.47,24.41Z  M32.33,18.6L29.69,19.92L27.99,24.55L30.13,24.59Z  M23.32,18.87L22.11,19.68L21.28,20.5L20.95,20.96L20.62,21.57L20.26,22.32L19.91,23.25L17.25,30.51L16.56,32.03L15.88,33.02L14.96,33.66L13.64,34.21L14.61,34.28L15.51,34.23L16.28,33.99L16.92,33.64L17.38,33.2L17.75,32.54L18.17,31.5L21.74,21.82L22.16,20.8L22.55,19.99L22.88,19.48L23.32,18.87Z  M29.42,26.53L27.27,26.48L26.05,29.81L25.79,30.6L25.59,31.24L25.5,31.7L25.48,32.03L25.7,32.67L26.19,32.89L26.63,32.78L27.27,32.43Z  M38.61,34.71L43.48,33.49L43.48,33.83L38.61,36.88Z  M51.46,18.95L51.77,19.11L51.07,19.83L50.63,20.36L50.34,20.89L50.05,21.55L48.51,25.78L48.25,26.64L48.2,27.1L48.47,27.37L48.71,27.32L48.89,27.21L49.26,26.99L49.39,27.3L46.62,29.08L46.18,28.51L45.96,27.98L45.96,27.43L46.16,26.68L42.26,28.99L41.78,28.29L41.49,27.59L41.4,26.9L41.53,26.22L41.95,25.34L42.52,24.52L43.6,23.42L45.1,22.12L44.81,19.57L45.06,19.31L45.61,19.35L46.8,19.15L48.03,18.47L49.37,19.17L50.05,19.37L50.58,19.46L50.93,19.39L51.13,19.24L51.46,18.95Z  M48.27,20.8L45.23,19.68L45.54,22.28L47.37,23.34Z  M47.21,23.75L45.21,22.59L44.37,23.71L43.87,24.7L43.69,25.47L43.71,26.18L43.93,26.79L44.37,27.37L46.33,26.2Z  M50.02,27.69L55.08,28.07L55.08,28.47L50.02,29.53Z  M58.47,14.59L59.72,14.55L57.69,16.8L57.3,16.8Z  M56.68,18.1L58,19.5L56.97,20.32L55.34,25.8L55.16,26.51L55.14,26.92L55.36,27.19L55.58,27.12L55.8,26.99L56.22,26.7L56.37,26.99L53.71,28.84L53.22,28.29L53,27.78L53.03,27.1L53.29,26.02L54.99,20.39L54.46,19.64Z  M57.97,27.51L61.4,27.93L61.4,28.4L57.97,29.43Z  M67.07,21.93L68.99,23.14L67.6,27.34L65.95,27.76L65.07,28.22L64.04,28.91L62.96,28.31L61.86,28.14L60.91,28.31L60.01,28.73L59.54,28.95L59.35,28.84L59.32,28.62L59.63,28.29L59.85,28.14L60.2,27.83L61.48,26.68L63.33,24.97L61.53,23.82L62.76,20.08L63.79,19.72L64.61,19.35L65.33,18.87L66.08,18.25L67.1,18.69L67.89,18.98L68.9,19.13L69.87,18.87L70.18,18.62L70.33,18.36L70.27,17.99L70.09,17.66L70.09,17.32L70.42,16.82L70.86,16.64L71.1,16.71L71.28,16.88L71.37,17.19L71.3,17.57L70.84,18.4L70.42,18.87L69.8,19.46Z  M63.93,22.65L65.05,23.36L68.17,20.43L67.51,20.58L66.96,20.63L65.82,20.45L64.85,19.83Z  M65.33,23.56L61.86,26.81L62.76,26.57L63.46,26.51L64.56,26.68L65.6,27.23L66.55,24.35Z  M68.43,26.96L71.91,28.4L71.91,28.65L68.43,28.7Z  M79.34,20.65L76.21,27.87L74.69,28.31L73.64,28.66L72.36,29.28L71.35,28.44L70.46,27.89L69.78,27.65L68.97,27.48L68.97,27.28L69.39,27.01L69.67,26.75L69.98,26.33L70.31,25.65L72.6,20.34L74.6,19.77L76.45,18.93L77.66,19.88L79.34,20.65Z  M71.98,26.55L74.14,27.81L76.81,21.66L75.97,21.11L75.4,20.78L74.63,20.5Z  M77.58,28.01L79.94,28.56L79.94,28.91L77.58,29.69Z  M87.48,19.06L88.23,20.63L89.58,19.77L89.75,20.06L88.96,20.56L88.5,20.94L88.15,21.44L87.79,22.1L85.83,26.73L85.66,27.3L85.64,27.7L85.86,27.94L86.12,27.85L86.67,27.61L86.78,27.92L83.92,29.46L83.5,28.84L83.32,28.31L83.41,27.7L83.72,26.79L85.97,21.49L85.48,20.52L83.21,21.71L80.95,27.1L81.39,27.85L79.05,29.1L77.86,27.59L78.9,26.95L81.01,21.99L81.32,21.11L81.39,20.56L81.14,20.28L80.86,20.36L80.39,20.61L80.28,20.3L83.13,18.73L83.59,19.37L83.79,19.83L83.76,20.3L83.57,20.87L83.41,21.22Z  M117.1,15.59L117.25,16.05L115.84,16.36L114.72,16.88L113.88,17.68L113.31,18.78L113.05,19.59L112.76,20.74L112.23,22.76L111.73,24.37L110.89,26.15L109.7,27.7L108.86,28.49L107.68,29.41L106.16,30.49L104.28,31.72L106.4,31.26L108.2,31.11L109.57,31.24L110.74,31.55L111.79,32.12L112.87,33L114.59,31.86L114.81,32.32L110.43,35.14L109.35,34.26L108.2,33.62L106.86,33.24L105.19,33.11L103.49,33.2L101.84,33.46L100.94,33.71L99.92,34.04L98.76,34.48L97.44,34.98L97.3,34.61L98.67,33.79L99.79,33.09L100.72,32.43L101.4,31.88L102.32,30.89L102.85,29.94L103.01,29.13L102.81,28.47L102.37,28.03L101.73,27.87L100.83,28.07L100.56,27.7L101.66,27.1L102.65,26.95L103.25,27.06L103.82,27.32L104,26.84L104.13,26.07L103.89,25.41L103.36,24.94L102.59,24.77L101.88,24.9L101.07,25.27L100.72,24.94L101.4,24.41L102.02,24.08L102.96,23.78L103.89,23.67L104.28,23.71L104.75,23.82L105.14,22.5L105.78,21.07L106.55,19.86L107.59,18.73L109,17.59L107.72,17.9L106.73,17.99L105.78,17.88L104.7,17.57L103.82,17.37L103.16,17.48L102.54,17.79L102.04,18.25L101.73,18.8L101.66,19.31L101.03,19.5L101.22,18.49L101.88,17.32L102.96,16.33L104.28,15.65L105.63,15.43L106.38,15.56L107.39,15.92L108.42,16.29L109.24,16.42L110.6,16.2L112.08,15.52L112.3,15.98L110.87,16.93L109.81,17.88L109.06,18.93L108.49,20.17L108.14,21.24L107.81,22.46L107.52,23.6L107.26,24.52L107.06,25.25L106.88,25.8L106.11,27.56L105.08,29.17L104.44,29.96L103.65,30.8L102.72,31.68L101.64,32.65L103.07,31.79L104.33,30.93L105.43,30.05L106.35,29.17L107.83,27.26L108.86,25.12L109.66,22.3L110.03,20.89L110.41,19.72L110.85,18.8L111.48,17.9L112.28,17.1L113.16,16.49L115.01,15.76L115.89,15.63L117.1,15.59Z  M115.5,32.71L119.93,31.94L119.93,32.24L115.5,34.79Z  M128.09,19.24L128.39,19.37L127.67,20.1L127.2,20.61L126.92,21.11L126.61,21.79L124.98,25.98L124.69,26.81L124.63,27.28L124.72,27.5L124.89,27.56L125.14,27.52L125.31,27.41L125.69,27.19L125.82,27.52L123,29.21L122.56,28.64L122.38,28.11L122.38,27.56L122.58,26.81L118.64,29.04L118.16,28.31L117.89,27.61L117.85,26.92L118,26.24L118.42,25.38L119.01,24.59L120.12,23.49L121.66,22.23L121.44,19.66L121.68,19.42L122.23,19.48L123.42,19.31L124.65,18.65L125.99,19.39L126.68,19.61L127.2,19.7L127.56,19.64L128.09,19.24Z  M124.85,20.98L121.85,19.81L122.07,22.39L123.88,23.51Z  M123.73,23.91L121.74,22.7L120.89,23.8L120.36,24.77L120.16,25.54L120.16,26.24L120.38,26.88L120.8,27.45L122.78,26.33Z  M126.64,28.03L129.26,28.45L129.26,28.83L126.64,29.71Z  M136.67,18.91L137.44,20.45L138.79,19.59L138.96,19.88L138.17,20.41L137.71,20.78L137.36,21.27L137.02,21.95L135.15,26.59L134.98,27.17L134.98,27.59L135.18,27.81L135.44,27.72L135.99,27.45L136.1,27.78L133.28,29.37L132.84,28.75L132.64,28.22L132.73,27.61L133.04,26.7L135.2,21.35L134.69,20.39L132.45,21.62L130.24,27.03L130.71,27.78L128.39,29.08L127.18,27.59L128.22,26.92L130.24,21.95L130.55,21.07L130.6,20.5L130.35,20.23L130.07,20.3L129.6,20.56L129.49,20.25L132.29,18.67L132.78,19.28L133,19.75L132.97,20.19L132.8,20.78L132.64,21.13Z  M137.21,27.22L140.75,28.49L140.75,28.75L137.21,29.02Z  M141.01,19.26L144.91,15.76L145.19,15.74L144.2,18.51L146.21,18.49L145.85,19.61L143.85,19.64L141.67,26.42L142.53,27.21L143.32,26.7L143.48,27.01L140.7,28.82L139.82,27.85L138.68,27.28L138.74,27.08L139.16,26.79L139.45,26.51L139.73,26.07L139.95,25.43L141.8,19.68L140.88,19.7Z  M144.45,26.87L146.57,28.32L146.57,28.56L144.45,28.65Z  M152.66,19L154.07,22.39L148.3,25.08L147.55,26.84L149.47,27.92L151.47,26.99L151.56,27.3L147.4,29.24L146.69,28.73L146.1,28.36L145.44,28.07L144.49,27.76L144.58,27.52L145.24,27.08L145.52,26.64L145.9,25.85L148.3,20.32L149.29,20.08L150.1,19.83L150.46,19.72L151.01,19.55L151.73,19.31L152.66,19Z  M150.65,19.97L150.48,20.03L148.58,24.41L151.98,22.85Z  M152.31,28.05L156.78,28.23L156.78,28.6L152.31,29.72Z  M162.63,18.16L163.56,19.95L161.62,21.33L160.87,19.75L159.59,20.65L157.72,26.51L158.58,27.3L159.88,26.46L159.99,26.79L156.77,28.88L156.22,28.27L155.74,27.85L154.71,27.39L154.77,27.14L155.23,26.84L155.54,26.53L155.78,26.07L156.07,25.32L157.39,21.22L157.55,20.58L157.55,20.19L157.44,20.01L157.26,19.95L156.95,20.06L156.51,20.34L156.36,20.06L159.02,18.21L159.53,18.82L159.81,19.33L159.75,20.17Z  M161.8,27.25L167.02,28.06L167.02,28.38L161.8,29.1Z  M170.38,14.57L171.64,14.53L169.61,16.77L169.22,16.77Z  M168.6,18.07L169.92,19.48L168.91,20.3L167.28,25.78L167.12,26.51L167.1,26.9L167.32,27.17L167.52,27.1L167.76,26.97L168.18,26.68L168.31,26.99L165.67,28.82L165.19,28.29L164.94,27.78L164.99,27.1L165.25,26L166.93,20.36L166.4,19.61Z  M169.88,26.4L174.6,28.05L174.6,28.34L169.88,28.37Z  M177.19,20.5L180.97,17.92L181.59,18.62L181.88,19.26L181.9,19.95L181.72,20.78L179.94,26.84L178.15,27.5L177.21,28.03L176.11,28.75L175.27,28.05L174.46,27.61L173.55,27.37L172.52,27.3L172.58,27.06L173.27,26.48L173.51,26.04L173.75,25.32L175.07,20.8L175.18,20.25L174.96,19.64L174.76,18.89L174.87,18.12L175.2,17.35L175.75,16.66L176.64,16L177.96,15.26L178.07,15.52L177.1,16.29L176.61,16.99L176.59,17.44L176.72,17.74L176.97,18.18L177.36,19.24L177.34,19.77L177.19,20.5Z  M177.01,21.05L175.56,25.96L177.85,27.03L179.52,21.4L179.65,20.76L179.65,20.3L179.48,19.97L179.1,19.61Z  M180.14,26.67L182.63,28.24L182.63,28.49L180.14,28.46Z  M188.48,18.78L190,22.15L184.3,24.97L183.59,26.75L185.53,27.78L187.53,26.81L187.62,27.12L183.5,29.15L182.8,28.66L182.18,28.33L181.5,28.05L180.55,27.76L180.66,27.52L181.3,27.06L181.57,26.59L181.92,25.8L184.17,20.21L185.16,19.95L185.97,19.7L186.32,19.57L186.87,19.37L187.58,19.11L188.48,18.78Z  M186.52,19.81L186.35,19.88L184.56,24.33L187.93,22.65Z  M187.93,22.65L188.55,22.7L189.21,22.62L189.86,22.44L190.48,22.17L191.09,21.82L191.67,21.42L192.26,20.98L192.86,20.53L193.47,20.08L194.12,19.65L194.8,19.26L195.5,18.89" fill="#472e24" opacity="0.22" transform="translate(0.25 0.18)"/>
    <path d="M40.12,17.32L40.37,17.74L39.35,18.58L38.71,19.26L38.27,20.01L37.81,21.07L34.18,31L33.94,31.7L33.78,32.25L33.72,32.67L33.72,32.94L33.92,33.24L34.27,33.33L34.75,33.2L35.5,32.78L35.7,33.29L31.67,35.64L30.94,35.01L30.61,34.3L30.59,33.86L30.7,33.29L30.88,32.56L31.16,31.7L35.68,19.42L34.11,17.7L33.06,18.23L30.7,24.61L32.29,24.66L30,26.55L28.01,31.97L29.34,31.17L29.56,31.59L23.3,35.45L22.75,34.32L22.25,33.53L21.36,32.74L21.52,32.28L22.14,32.01L22.58,31.64L22.88,31.09L23.28,30.07L24.62,26.42L20.68,26.33L18.66,31.86L18.19,32.94L17.62,33.88L16.96,34.7L16.19,35.36L15.35,35.89L14.5,36.26L13.61,36.46L12.67,36.52L12.12,36.48L11.26,36.33L10.66,36.24L10.25,36.19L9.65,36.26L9.17,36.48L8.81,36.88L8.51,37.47L8,37.45L8.18,36.52L8.53,35.86L9.01,35.23L9.65,34.72L10.33,34.34L11.06,34.17L12.16,34.04L13.33,33.82L14.3,33.31L15.02,32.54L15.55,31.48L15.84,30.6L15.97,29.81L15.95,29.08L15.79,28.44L15.53,27.92L15.18,27.52L14.72,27.3L14.14,27.21L13.2,27.41L12.23,28.07L11.83,27.85L12.51,27.03L13.17,26.42L13.88,25.96L14.72,25.63L15.49,25.47L16.48,25.45L16.68,24.86L17.62,22.87L18.88,21.24L20.51,19.86L22.6,18.58L23.87,17.96L25.35,17.32L27.07,16.64L28.98,15.94L29.78,16.62L30.15,17.28L30.19,18.1L29.95,19.2L36.2,16.11L38.47,18.49Z  M25.33,24.48L26.74,20.65L27.11,19.44L27.13,18.62L26.83,18.03L26.19,17.57L25.26,17.99L24.62,18.36L23.41,19.59L22.91,20.5L22.38,21.71L20.88,25.78L22.47,24.41Z  M32.33,18.6L29.69,19.92L27.99,24.55L30.13,24.59Z  M23.32,18.87L22.11,19.68L21.28,20.5L20.95,20.96L20.62,21.57L20.26,22.32L19.91,23.25L17.25,30.51L16.56,32.03L15.88,33.02L14.96,33.66L13.64,34.21L14.61,34.28L15.51,34.23L16.28,33.99L16.92,33.64L17.38,33.2L17.75,32.54L18.17,31.5L21.74,21.82L22.16,20.8L22.55,19.99L22.88,19.48L23.32,18.87Z  M29.42,26.53L27.27,26.48L26.05,29.81L25.79,30.6L25.59,31.24L25.5,31.7L25.48,32.03L25.7,32.67L26.19,32.89L26.63,32.78L27.27,32.43Z  M38.61,34.71L43.48,33.49L43.48,33.83L38.61,36.88Z  M51.46,18.95L51.77,19.11L51.07,19.83L50.63,20.36L50.34,20.89L50.05,21.55L48.51,25.78L48.25,26.64L48.2,27.1L48.47,27.37L48.71,27.32L48.89,27.21L49.26,26.99L49.39,27.3L46.62,29.08L46.18,28.51L45.96,27.98L45.96,27.43L46.16,26.68L42.26,28.99L41.78,28.29L41.49,27.59L41.4,26.9L41.53,26.22L41.95,25.34L42.52,24.52L43.6,23.42L45.1,22.12L44.81,19.57L45.06,19.31L45.61,19.35L46.8,19.15L48.03,18.47L49.37,19.17L50.05,19.37L50.58,19.46L50.93,19.39L51.13,19.24L51.46,18.95Z  M48.27,20.8L45.23,19.68L45.54,22.28L47.37,23.34Z  M47.21,23.75L45.21,22.59L44.37,23.71L43.87,24.7L43.69,25.47L43.71,26.18L43.93,26.79L44.37,27.37L46.33,26.2Z  M50.02,27.69L55.08,28.07L55.08,28.47L50.02,29.53Z  M58.47,14.59L59.72,14.55L57.69,16.8L57.3,16.8Z  M56.68,18.1L58,19.5L56.97,20.32L55.34,25.8L55.16,26.51L55.14,26.92L55.36,27.19L55.58,27.12L55.8,26.99L56.22,26.7L56.37,26.99L53.71,28.84L53.22,28.29L53,27.78L53.03,27.1L53.29,26.02L54.99,20.39L54.46,19.64Z  M57.97,27.51L61.4,27.93L61.4,28.4L57.97,29.43Z  M67.07,21.93L68.99,23.14L67.6,27.34L65.95,27.76L65.07,28.22L64.04,28.91L62.96,28.31L61.86,28.14L60.91,28.31L60.01,28.73L59.54,28.95L59.35,28.84L59.32,28.62L59.63,28.29L59.85,28.14L60.2,27.83L61.48,26.68L63.33,24.97L61.53,23.82L62.76,20.08L63.79,19.72L64.61,19.35L65.33,18.87L66.08,18.25L67.1,18.69L67.89,18.98L68.9,19.13L69.87,18.87L70.18,18.62L70.33,18.36L70.27,17.99L70.09,17.66L70.09,17.32L70.42,16.82L70.86,16.64L71.1,16.71L71.28,16.88L71.37,17.19L71.3,17.57L70.84,18.4L70.42,18.87L69.8,19.46Z  M63.93,22.65L65.05,23.36L68.17,20.43L67.51,20.58L66.96,20.63L65.82,20.45L64.85,19.83Z  M65.33,23.56L61.86,26.81L62.76,26.57L63.46,26.51L64.56,26.68L65.6,27.23L66.55,24.35Z  M68.43,26.96L71.91,28.4L71.91,28.65L68.43,28.7Z  M79.34,20.65L76.21,27.87L74.69,28.31L73.64,28.66L72.36,29.28L71.35,28.44L70.46,27.89L69.78,27.65L68.97,27.48L68.97,27.28L69.39,27.01L69.67,26.75L69.98,26.33L70.31,25.65L72.6,20.34L74.6,19.77L76.45,18.93L77.66,19.88L79.34,20.65Z  M71.98,26.55L74.14,27.81L76.81,21.66L75.97,21.11L75.4,20.78L74.63,20.5Z  M77.58,28.01L79.94,28.56L79.94,28.91L77.58,29.69Z  M87.48,19.06L88.23,20.63L89.58,19.77L89.75,20.06L88.96,20.56L88.5,20.94L88.15,21.44L87.79,22.1L85.83,26.73L85.66,27.3L85.64,27.7L85.86,27.94L86.12,27.85L86.67,27.61L86.78,27.92L83.92,29.46L83.5,28.84L83.32,28.31L83.41,27.7L83.72,26.79L85.97,21.49L85.48,20.52L83.21,21.71L80.95,27.1L81.39,27.85L79.05,29.1L77.86,27.59L78.9,26.95L81.01,21.99L81.32,21.11L81.39,20.56L81.14,20.28L80.86,20.36L80.39,20.61L80.28,20.3L83.13,18.73L83.59,19.37L83.79,19.83L83.76,20.3L83.57,20.87L83.41,21.22Z  M117.1,15.59L117.25,16.05L115.84,16.36L114.72,16.88L113.88,17.68L113.31,18.78L113.05,19.59L112.76,20.74L112.23,22.76L111.73,24.37L110.89,26.15L109.7,27.7L108.86,28.49L107.68,29.41L106.16,30.49L104.28,31.72L106.4,31.26L108.2,31.11L109.57,31.24L110.74,31.55L111.79,32.12L112.87,33L114.59,31.86L114.81,32.32L110.43,35.14L109.35,34.26L108.2,33.62L106.86,33.24L105.19,33.11L103.49,33.2L101.84,33.46L100.94,33.71L99.92,34.04L98.76,34.48L97.44,34.98L97.3,34.61L98.67,33.79L99.79,33.09L100.72,32.43L101.4,31.88L102.32,30.89L102.85,29.94L103.01,29.13L102.81,28.47L102.37,28.03L101.73,27.87L100.83,28.07L100.56,27.7L101.66,27.1L102.65,26.95L103.25,27.06L103.82,27.32L104,26.84L104.13,26.07L103.89,25.41L103.36,24.94L102.59,24.77L101.88,24.9L101.07,25.27L100.72,24.94L101.4,24.41L102.02,24.08L102.96,23.78L103.89,23.67L104.28,23.71L104.75,23.82L105.14,22.5L105.78,21.07L106.55,19.86L107.59,18.73L109,17.59L107.72,17.9L106.73,17.99L105.78,17.88L104.7,17.57L103.82,17.37L103.16,17.48L102.54,17.79L102.04,18.25L101.73,18.8L101.66,19.31L101.03,19.5L101.22,18.49L101.88,17.32L102.96,16.33L104.28,15.65L105.63,15.43L106.38,15.56L107.39,15.92L108.42,16.29L109.24,16.42L110.6,16.2L112.08,15.52L112.3,15.98L110.87,16.93L109.81,17.88L109.06,18.93L108.49,20.17L108.14,21.24L107.81,22.46L107.52,23.6L107.26,24.52L107.06,25.25L106.88,25.8L106.11,27.56L105.08,29.17L104.44,29.96L103.65,30.8L102.72,31.68L101.64,32.65L103.07,31.79L104.33,30.93L105.43,30.05L106.35,29.17L107.83,27.26L108.86,25.12L109.66,22.3L110.03,20.89L110.41,19.72L110.85,18.8L111.48,17.9L112.28,17.1L113.16,16.49L115.01,15.76L115.89,15.63L117.1,15.59Z  M115.5,32.71L119.93,31.94L119.93,32.24L115.5,34.79Z  M128.09,19.24L128.39,19.37L127.67,20.1L127.2,20.61L126.92,21.11L126.61,21.79L124.98,25.98L124.69,26.81L124.63,27.28L124.72,27.5L124.89,27.56L125.14,27.52L125.31,27.41L125.69,27.19L125.82,27.52L123,29.21L122.56,28.64L122.38,28.11L122.38,27.56L122.58,26.81L118.64,29.04L118.16,28.31L117.89,27.61L117.85,26.92L118,26.24L118.42,25.38L119.01,24.59L120.12,23.49L121.66,22.23L121.44,19.66L121.68,19.42L122.23,19.48L123.42,19.31L124.65,18.65L125.99,19.39L126.68,19.61L127.2,19.7L127.56,19.64L128.09,19.24Z  M124.85,20.98L121.85,19.81L122.07,22.39L123.88,23.51Z  M123.73,23.91L121.74,22.7L120.89,23.8L120.36,24.77L120.16,25.54L120.16,26.24L120.38,26.88L120.8,27.45L122.78,26.33Z  M126.64,28.03L129.26,28.45L129.26,28.83L126.64,29.71Z  M136.67,18.91L137.44,20.45L138.79,19.59L138.96,19.88L138.17,20.41L137.71,20.78L137.36,21.27L137.02,21.95L135.15,26.59L134.98,27.17L134.98,27.59L135.18,27.81L135.44,27.72L135.99,27.45L136.1,27.78L133.28,29.37L132.84,28.75L132.64,28.22L132.73,27.61L133.04,26.7L135.2,21.35L134.69,20.39L132.45,21.62L130.24,27.03L130.71,27.78L128.39,29.08L127.18,27.59L128.22,26.92L130.24,21.95L130.55,21.07L130.6,20.5L130.35,20.23L130.07,20.3L129.6,20.56L129.49,20.25L132.29,18.67L132.78,19.28L133,19.75L132.97,20.19L132.8,20.78L132.64,21.13Z  M137.21,27.22L140.75,28.49L140.75,28.75L137.21,29.02Z  M141.01,19.26L144.91,15.76L145.19,15.74L144.2,18.51L146.21,18.49L145.85,19.61L143.85,19.64L141.67,26.42L142.53,27.21L143.32,26.7L143.48,27.01L140.7,28.82L139.82,27.85L138.68,27.28L138.74,27.08L139.16,26.79L139.45,26.51L139.73,26.07L139.95,25.43L141.8,19.68L140.88,19.7Z  M144.45,26.87L146.57,28.32L146.57,28.56L144.45,28.65Z  M152.66,19L154.07,22.39L148.3,25.08L147.55,26.84L149.47,27.92L151.47,26.99L151.56,27.3L147.4,29.24L146.69,28.73L146.1,28.36L145.44,28.07L144.49,27.76L144.58,27.52L145.24,27.08L145.52,26.64L145.9,25.85L148.3,20.32L149.29,20.08L150.1,19.83L150.46,19.72L151.01,19.55L151.73,19.31L152.66,19Z  M150.65,19.97L150.48,20.03L148.58,24.41L151.98,22.85Z  M152.31,28.05L156.78,28.23L156.78,28.6L152.31,29.72Z  M162.63,18.16L163.56,19.95L161.62,21.33L160.87,19.75L159.59,20.65L157.72,26.51L158.58,27.3L159.88,26.46L159.99,26.79L156.77,28.88L156.22,28.27L155.74,27.85L154.71,27.39L154.77,27.14L155.23,26.84L155.54,26.53L155.78,26.07L156.07,25.32L157.39,21.22L157.55,20.58L157.55,20.19L157.44,20.01L157.26,19.95L156.95,20.06L156.51,20.34L156.36,20.06L159.02,18.21L159.53,18.82L159.81,19.33L159.75,20.17Z  M161.8,27.25L167.02,28.06L167.02,28.38L161.8,29.1Z  M170.38,14.57L171.64,14.53L169.61,16.77L169.22,16.77Z  M168.6,18.07L169.92,19.48L168.91,20.3L167.28,25.78L167.12,26.51L167.1,26.9L167.32,27.17L167.52,27.1L167.76,26.97L168.18,26.68L168.31,26.99L165.67,28.82L165.19,28.29L164.94,27.78L164.99,27.1L165.25,26L166.93,20.36L166.4,19.61Z  M169.88,26.4L174.6,28.05L174.6,28.34L169.88,28.37Z  M177.19,20.5L180.97,17.92L181.59,18.62L181.88,19.26L181.9,19.95L181.72,20.78L179.94,26.84L178.15,27.5L177.21,28.03L176.11,28.75L175.27,28.05L174.46,27.61L173.55,27.37L172.52,27.3L172.58,27.06L173.27,26.48L173.51,26.04L173.75,25.32L175.07,20.8L175.18,20.25L174.96,19.64L174.76,18.89L174.87,18.12L175.2,17.35L175.75,16.66L176.64,16L177.96,15.26L178.07,15.52L177.1,16.29L176.61,16.99L176.59,17.44L176.72,17.74L176.97,18.18L177.36,19.24L177.34,19.77L177.19,20.5Z  M177.01,21.05L175.56,25.96L177.85,27.03L179.52,21.4L179.65,20.76L179.65,20.3L179.48,19.97L179.1,19.61Z  M180.14,26.67L182.63,28.24L182.63,28.49L180.14,28.46Z  M188.48,18.78L190,22.15L184.3,24.97L183.59,26.75L185.53,27.78L187.53,26.81L187.62,27.12L183.5,29.15L182.8,28.66L182.18,28.33L181.5,28.05L180.55,27.76L180.66,27.52L181.3,27.06L181.57,26.59L181.92,25.8L184.17,20.21L185.16,19.95L185.97,19.7L186.32,19.57L186.87,19.37L187.58,19.11L188.48,18.78Z  M186.52,19.81L186.35,19.88L184.56,24.33L187.93,22.65Z  M187.93,22.65L188.55,22.7L189.21,22.62L189.86,22.44L190.48,22.17L191.09,21.82L191.67,21.42L192.26,20.98L192.86,20.53L193.47,20.08L194.12,19.65L194.8,19.26L195.5,18.89" fill="#1f1210" fill-rule="evenodd" filter="url(#ink-soft-9B7373C34DBE)"/>
  </g>
</svg>