<?xml version="1.0" encoding="UTF-8"?>
<svg xmlns="http://www.w3.org/2000/svg" viewBox="0 0 200 48" width="200" height="48">
  <rect id="sig-view-bg" width="200" height="48" fill="#ffffff"/>
  <defs>
    <filter id="ink-soft-076F843DFF62" x="-14%" y="-14%" width="128%" height="128%" color-interpolation-filters="sRGB">
      <feGaussianBlur in="SourceGraphic" stdDeviation="0.12" result="b"/>
      <feMerge>
        <feMergeNode in="b"/>
        <feMergeNode in="SourceGraphic"/>
      </feMerge>
    </filter>
  </defs>
  <rect width="200" height="48" fill="none"/>
  <g id="signature-plume">
    <path d="M30.55,9.64L33.72,9.86L36.03,10.26L38.66,11.3L40.78,12.74L42.33,14.65L43.3,16.92L43.63,19.52L43.2,22.36L42.15,25.14L40.42,27.95L39.23,29.39L37.79,30.94L36.06,32.59L34.08,34.36L29.9,37.6L25.9,40.05L24,40.95L22.16,41.63L20.39,42.1L18.7,42.36L16.97,42.39L15.35,42.18L13.8,41.74L12.32,41.09L11.03,40.23L9.95,39.19L9.12,37.92L8.5,36.52L8.11,34.97L8,33.31L8.11,31.55L8.47,29.67L10.02,25.42L11.17,23.19L12.76,20.6L15.35,19.16L18.41,17.28L19.64,16.53L21.51,15.34L24.07,13.75L27.27,11.77L30.55,9.64Z  M27.81,14.08L25.04,14.15L21.73,27.01L21.22,28.77L20.72,29.93L20.1,30.79L19.28,31.73L14.38,35.91L15.93,37.24L17.47,38.07L19.31,38.5L21.55,38.64Z  M27.24,19.8L28.43,20.85L29.65,21.53L30.95,21.86L32.46,21.89L33.9,21.64L35.34,21.1L36.86,20.2L38.51,18.94L37.72,17.61L36.89,16.71L35.24,15.62L33.36,14.83L31.2,14.33L28.71,14.08Z  M19.96,17.35L18.09,18.72L16.79,19.84L15.49,21.28L14.27,23.01L13.26,24.88L12.58,26.97L12.21,29.21L12.29,31.33L12.83,33.35L13.84,35.26L14.88,34.29L15.57,33.31L16.14,31.94L16.47,30.9L16.79,29.67Z  M24.93,28.85L26.73,27.44L28.28,26.5L29.8,25.93L31.45,25.68L33.11,25.71L34.51,26.07L35.78,26.86L37.04,28.09L37.97,26.07L38.55,24.31L39.02,21.79L38.8,19.84L36.78,21.24L35.09,22.18L33.54,22.69L31.96,22.94L30.55,22.94L29.33,22.65L28.17,22.04L26.95,21.03Z  M22.45,38.57L24.93,38.07L27.02,37.35L29.72,35.83L32.21,33.96L34.44,31.66L36.46,29.03L35.31,27.87L34.08,27.12L32.71,26.72L31.24,26.65L29.44,27.04L27.6,27.87L26.16,28.92L24.54,30.43Z  M40.76,39.19L50.92,36.61L50.92,37.16L40.76,42.63Z  M60.27,15.7L61.82,18.61L58.69,20.92L57.43,18.33L55.37,19.88L52.42,29.46L53.86,30.76L55.95,29.39L56.17,29.89L50.94,33.39L50.04,32.41L49.25,31.73L47.52,30.97L47.63,30.61L48.38,30.07L48.89,29.57L49.29,28.77L49.72,27.55L51.77,20.85L52.02,19.77L51.99,19.16L51.81,18.87L51.52,18.76L51.01,18.94L50.29,19.44L50.04,18.98L54.36,15.88L55.23,16.85L55.7,17.68L55.63,19.05Z  M58.95,31.56L66.12,31.88L66.12,32.56L58.95,34.34Z  M74.18,15.55L77.2,20.78L68.38,26.32L67.51,29.35L70.83,30.68L73.93,28.81L74.14,29.28L67.77,33.28L66.51,32.59L65.46,32.12L64.31,31.8L62.72,31.48L62.87,31.04L63.84,30.18L64.2,29.42L64.63,28.09L67.37,18.61L68.95,18L70.22,17.46L70.79,17.21L71.62,16.78L72.77,16.24L74.18,15.55Z  M71.15,17.57L70.86,17.68L68.7,25.21L73.89,21.97Z  M74.33,30.39L83.16,31.84L83.16,32.31L74.33,33.46Z  M91.83,8.67L91.72,9.1L90.46,9.93L89.49,10.94L88.8,12.2L88.23,14L84.55,28.88L86.07,30.14L86.93,29.49L87.18,30.03L83.29,32.88L82.25,31.87L81.53,31.3L80.77,30.94L79.76,30.68L79.87,30.32L80.74,29.53L81.35,28.49L81.53,27.87L81.89,26.47L84.84,14.51L85.13,13.25L85.27,12.42L85.09,11.3L84.23,10.18L84.59,9.82L85.81,10.37L86.79,11.37L88.23,10.18L89.45,9.39L90.61,8.92L91.83,8.67Z  M124.87,17.68L140.21,10.08L141.04,12.78L141.37,15.52L141.19,18.36L140.54,21.24L138.81,25.5L136.25,29.39L133.84,32.12L130.63,35.29L126.63,38.93L121.88,42.97L120.83,42.25L119.89,41.78L117.88,41.49L115.32,41.92L113.84,42.46L111.97,43.33L111.5,42.79L113.77,39.83L115.28,37.64L116.26,35.87L116.87,34.29L117.16,32.23L116.69,30.65L115.68,29.64L114.27,29.35L113.01,29.64L111.93,30.5L111.39,30L112.4,28.7L113.48,27.8L114.67,27.22L115.93,27.01L117.37,27.22L118.09,27.59L118.96,28.27L119.71,24.85L120.04,21.82L119.93,19.16L119.43,16.92L118.96,15.91L118.38,15.19L117.66,14.8L116.83,14.69L116,14.87L115.21,15.34L114.24,16.53L113.23,18.36L112.47,18.15L113.37,15.91L114.38,14.15L115.5,12.81L116.83,11.77L118.17,11.12L119.5,10.87L121.34,11.19L122.96,12.31L123.64,13.21L124.18,14.4L124.58,15.91L124.87,17.68Z  M124.87,18.69L124.79,20.99L124.51,23.19L127.03,23.77L129.41,23.91L132.54,23.44L136.03,22.22L136.39,19.95L136.47,17.79L136.21,15.62L135.57,13.32Z  M135.71,23.3L133.73,24.05L132.07,24.52L129.05,24.92L126.63,24.78L124.25,24.16L124.07,25.1L123.89,25.71L123.06,27.95L121.8,30.5L124.4,29.82L126.6,29.57L129.33,29.78L132,30.72L134.23,26.79L135.71,23.3Z  M131.31,31.66L129.84,31.04L128.65,30.68L126.27,30.5L123.93,30.83L121.19,31.62L119.82,33.78L118.49,35.69L116.11,38.64L113.45,41.63L116,40.09L118.06,39.08L120.33,38.36L122.38,38.07L123.86,38.14L125.44,38.5L127.32,36.63L128.76,35.01L131.31,31.66Z  M138.5,39.42L148.51,37.77L148.51,38.27L138.5,42.89Z  M160.64,15.98L161.14,16.2L160.1,17.46L159.45,18.36L159.02,19.26L158.62,20.38L156.6,27.44L156.24,28.88L156.21,29.64L156.39,29.96L156.68,30.03L157.07,29.93L157.36,29.75L157.94,29.31L158.19,29.82L153.87,33.02L153.07,32.12L152.68,31.33L152.61,30.43L152.82,29.17L146.73,33.39L145.83,32.3L145.29,31.19L145.11,30.07L145.26,28.95L145.83,27.48L146.66,26.07L148.32,24.13L150.62,21.86L149.87,17.71L150.23,17.28L151.13,17.28L153.07,16.81L154.98,15.55L157.25,16.56L158.37,16.85L159.27,16.89L159.85,16.74L160.13,16.49L160.64,15.98Z  M155.63,19.34L150.55,17.86L151.34,22.04L154.44,23.59Z  M154.23,24.27L150.84,22.58L149.62,24.52L148.9,26.18L148.68,27.48L148.79,28.63L149.22,29.64L150.01,30.5L153.07,28.34Z  M158.27,30.85L163.21,32.59L163.21,33.03L158.27,33.63Z  M175.09,16.89L176.38,19.37L178.54,17.93L178.83,18.36L177.57,19.26L176.85,19.88L176.27,20.7L175.77,21.82L172.82,29.49L172.53,30.43L172.56,31.12L172.89,31.48L173.36,31.33L174.22,30.86L174.44,31.4L169.83,34.07L169.07,33.1L168.78,32.23L168.89,31.19L169.36,29.71L172.74,20.92L171.88,19.34L168.24,21.46L164.82,30.36L165.61,31.58L161.83,33.78L159.81,31.33L161.47,30.25L164.64,22.04L165.14,20.56L165.18,19.66L164.78,19.23L164.31,19.37L163.56,19.8L163.38,19.3L167.92,16.6L168.71,17.57L169.07,18.33L169.07,19.08L168.78,20.06L168.56,20.63Z  M175.96,30.75L180.79,32.42L180.79,32.83L175.96,33.68Z  M181.46,17.14L187.95,11.52L188.41,11.52L186.72,16.02L190,16.02L189.35,17.86L186.07,17.86L182.33,28.85L183.7,30.21L185.03,29.39L185.24,29.89L180.67,32.74L179.26,31.19L177.39,30.21L177.5,29.89L178.69,28.95L179.16,28.23L179.55,27.22L182.76,17.86L181.21,17.86Z  M181.21,17.86L180.4,17.37L179.42,17.02L178.36,16.82L177.26,16.77L176.11,16.84L174.93,17L173.73,17.2L172.5,17.42L171.24,17.61L169.97,17.75L168.68,17.84L167.38,17.86" fill="#472e24" opacity="0.22" transform="translate(0.25 0.18)"/>
    <path d="M30.55,9.64L33.72,9.86L36.03,10.26L38.66,11.3L40.78,12.74L42.33,14.65L43.3,16.92L43.63,19.52L43.2,22.36L42.15,25.14L40.42,27.95L39.23,29.39L37.79,30.94L36.06,32.59L34.08,34.36L29.9,37.6L25.9,40.05L24,40.95L22.16,41.63L20.39,42.1L18.7,42.36L16.97,42.39L15.35,42.18L13.8,41.74L12.32,41.09L11.03,40.23L9.95,39.19L9.12,37.92L8.5,36.52L8.11,34.97L8,33.31L8.11,31.55L8.47,29.67L10.02,25.42L11.17,23.19L12.76,20.6L15.35,19.16L18.41,17.28L19.64,16.53L21.51,15.34L24.07,13.75L27.27,11.77L30.55,9.64Z  M27.81,14.08L25.04,14.15L21.73,27.01L21.22,28.77L20.72,29.93L20.1,30.79L19.28,31.73L14.38,35.91L15.93,37.24L17.47,38.07L19.31,38.5L21.55,38.64Z  M27.24,19.8L28.43,20.85L29.65,21.53L30.95,21.86L32.46,21.89L33.9,21.64L35.34,21.1L36.86,20.2L38.51,18.94L37.72,17.61L36.89,16.71L35.24,15.62L33.36,14.83L31.2,14.33L28.71,14.08Z  M19.96,17.35L18.09,18.72L16.79,19.84L15.49,21.28L14.27,23.01L13.26,24.88L12.58,26.97L12.21,29.21L12.29,31.33L12.83,33.35L13.84,35.26L14.88,34.29L15.57,33.31L16.14,31.94L16.47,30.9L16.79,29.67Z  M24.93,28.85L26.73,27.44L28.28,26.5L29.8,25.93L31.45,25.68L33.11,25.71L34.51,26.07L35.78,26.86L37.04,28.09L37.97,26.07L38.55,24.31L39.02,21.79L38.8,19.84L36.78,21.24L35.09,22.18L33.54,22.69L31.96,22.94L30.55,22.94L29.33,22.65L28.17,22.04L26.95,21.03Z  M22.45,38.57L24.93,38.07L27.02,37.35L29.72,35.83L32.21,33.96L34.44,31.66L36.46,29.03L35.31,27.87L34.08,27.12L32.71,26.72L31.24,26.65L29.44,27.04L27.6,27.87L26.16,28.92L24.54,30.43Z  M40.76,39.19L50.92,36.61L50.92,37.16L40.76,42.63Z  M60.27,15.7L61.82,18.61L58.69,20.92L57.43,18.33L55.37,19.88L52.42,29.46L53.86,30.76L55.95,29.39L56.17,29.89L50.94,33.39L50.04,32.41L49.25,31.73L47.52,30.97L47.63,30.61L48.38,30.07L48.89,29.57L49.29,28.77L49.72,27.55L51.77,20.85L52.02,19.77L51.99,19.16L51.81,18.87L51.52,18.76L51.01,18.94L50.29,19.44L50.04,18.98L54.36,15.88L55.23,16.85L55.7,17.68L55.63,19.05Z  M58.95,31.56L66.12,31.88L66.12,32.56L58.95,34.34Z  M74.18,15.55L77.2,20.78L68.38,26.32L67.51,29.35L70.83,30.68L73.93,28.81L74.14,29.28L67.77,33.28L66.51,32.59L65.46,32.12L64.31,31.8L62.72,31.48L62.87,31.04L63.84,30.18L64.2,29.42L64.63,28.09L67.37,18.61L68.95,18L70.22,17.46L70.79,17.21L71.62,16.78L72.77,16.24L74.18,15.55Z  M71.15,17.57L70.86,17.68L68.7,25.21L73.89,21.97Z  M74.33,30.39L83.16,31.84L83.16,32.31L74.33,33.46Z  M91.83,8.67L91.72,9.1L90.46,9.93L89.49,10.94L88.8,12.2L88.23,14L84.55,28.88L86.07,30.14L86.93,29.49L87.18,30.03L83.29,32.88L82.25,31.87L81.53,31.3L80.77,30.94L79.76,30.68L79.87,30.32L80.74,29.53L81.35,28.49L81.53,27.87L81.89,26.47L84.84,14.51L85.13,13.25L85.27,12.42L85.09,11.3L84.23,10.18L84.59,9.82L85.81,10.37L86.79,11.37L88.23,10.18L89.45,9.39L90.61,8.92L91.83,8.67Z  M124.87,17.68L140.21,10.08L141.04,12.78L141.37,15.52L141.19,18.36L140.54,21.24L138.81,25.5L136.25,29.39L133.84,32.12L130.63,35.29L126.63,38.93L121.88,42.97L120.83,42.25L119.89,41.78L117.88,41.49L115.32,41.92L113.84,42.46L111.97,43.33L111.5,42.79L113.77,39.83L115.28,37.64L116.26,35.87L116.87,34.29L117.16,32.23L116.69,30.65L115.68,29.64L114.27,29.35L113.01,29.64L111.93,30.5L111.39,30L112.4,28.7L113.48,27.8L114.67,27.22L115.93,27.01L117.37,27.22L118.09,27.59L118.96,28.27L119.71,24.85L120.04,21.82L119.93,19.16L119.43,16.92L118.96,15.91L118.38,15.19L117.66,14.8L116.83,14.69L116,14.87L115.21,15.34L114.24,16.53L113.23,18.36L112.47,18.15L113.37,15.91L114.38,14.15L115.5,12.81L116.83,11.77L118.17,11.12L119.5,10.87L121.34,11.19L122.96,12.31L123.64,13.21L124.18,14.4L124.58,15.91L124.87,17.68Z  M124.87,18.69L124.79,20.99L124.51,23.19L127.03,23.77L129.41,23.91L132.54,23.44L136.03,22.22L136.39,19.95L136.47,17.79L136.21,15.62L135.57,13.32Z  M135.71,23.3L133.73,24.05L132.07,24.52L129.05,24.92L126.63,24.78L124.25,24.16L124.07,25.1L123.89,25.71L123.06,27.95L121.8,30.5L124.4,29.82L126.6,29.57L129.33,29.78L132,30.72L134.23,26.79L135.71,23.3Z  M131.31,31.66L129.84,31.04L128.65,30.68L126.27,30.5L123.93,30.83L121.19,31.62L119.82,33.78L118.49,35.69L116.11,38.64L113.45,41.63L116,40.09L118.06,39.08L120.33,38.36L122.38,38.07L123.86,38.14L125.44,38.5L127.32,36.63L128.76,35.01L131.31,31.66Z  M138.5,39.42L148.51,37.77L148.51,38.27L138.5,42.89Z  M160.64,15.98L161.14,16.2L160.1,17.46L159.45,18.36L159.02,19.26L158.62,20.38L156.6,27.44L156.24,28.88L156.21,29.64L156.39,29.96L156.68,30.03L157.07,29.93L157.36,29.75L157.94,29.31L158.19,29.82L153.87,33.02L153.07,32.12L152.68,31.33L152.61,30.43L152.82,29.17L146.73,33.39L145.83,32.3L145.29,31.19L145.11,30.07L145.26,28.95L145.83,27.48L146.66,26.07L148.32,24.13L150.62,21.86L149.87,17.71L150.23,17.28L151.13,17.28L153.07,16.81L154.98,15.55L157.25,16.56L158.37,16.85L159.27,16.89L159.85,16.74L160.13,16.49L160.64,15.98Z  M155.63,19.34L150.55,17.86L151.34,22.04L154.44,23.59Z  M154.23,24.27L150.84,22.58L149.62,24.52L148.9,26.18L148.68,27.48L148.79,28.63L149.22,29.64L150.01,30.5L153.07,28.34Z  M158.27,30.85L163.21,32.59L163.21,33.03L158.27,33.63Z  M175.09,16.89L176.38,19.37L178.54,17.93L178.83,18.36L177.57,19.26L176.85,19.88L176.27,20.7L175.77,21.82L172.82,29.49L172.53,30.43L172.56,31.12L172.89,31.48L173.36,31.33L174.22,30.86L174.44,31.4L169.83,34.07L169.07,33.1L168.78,32.23L168.89,31.19L169.36,29.71L172.74,20.92L171.88,19.34L168.24,21.46L164.82,30.36L165.61,31.58L161.83,33.78L159.81,31.33L161.47,30.25L164.64,22.04L165.14,20.56L165.18,19.66L164.78,19.23L164.31,19.37L163.56,19.8L163.38,19.3L167.92,16.6L168.71,17.57L169.07,18.33L169.07,19.08L168.78,20.06L168.56,20.63Z  M175.96,30.75L180.79,32.42L180.79,32.83L175.96,33.68Z  M181.46,17.14L187.95,11.52L188.41,11.52L186.72,16.02L190,16.02L189.35,17.86L186.07,17.86L182.33,28.85L183.7,30.21L185.03,29.39L185.24,29.89L180.67,32.74L179.26,31.19L177.39,30.21L177.5,29.89L178.69,28.95L179.16,28.23L179.55,27.22L182.76,17.86L181.21,17.86Z  M181.21,17.86L180.4,17.37L179.42,17.02L178.36,16.82L177.26,16.77L176.11,16.84L174.93,17L173.73,17.2L172.5,17.42L171.24,17.61L169.97,17.75L168.68,17.84L167.38,17.86" fill="#1f1210" fill-rule="evenodd" filter="url(#ink-soft-076F843DFF62)"/>
  </g>
</svg>